<?xml version="1.0" encoding="UTF-8"?>
<svg version="1.1" xmlns="http://www.w3.org/2000/svg" width="2000" height="2000">
<path d="M0 0 C9.29988639 6.52652741 15.96542747 13.97997492 20.1875 24.53515625 C42.9575 24.86515625 65.7275 25.19515625 89.1875 25.53515625 C89.1875 18.60515625 89.1875 11.67515625 89.1875 4.53515625 C95.73963527 -5.94826018 95.73963527 -5.94826018 102.1875 -7.46484375 C151.87331381 -12.35473719 205.40834984 10.90121528 243.1875 41.53515625 C246.79099682 44.55884231 250.2355366 47.74025622 253.61425781 51.01318359 C254.71946446 52.08237327 255.83141845 53.14461095 256.94824219 54.20166016 C266.81631056 63.55322522 275.22709754 73.52597 283.1875 84.53515625 C283.67444336 85.19 284.16138672 85.84484375 284.66308594 86.51953125 C288.1875 91.30778783 288.1875 91.30778783 288.1875 93.53515625 C287.30625961 93.53658127 286.42501923 93.53800629 285.51707458 93.53947449 C277.14800216 93.55742079 268.77945045 93.5993749 260.41062832 93.66724682 C256.10970236 93.70130919 251.80912377 93.72659408 247.50805664 93.73071289 C243.34501084 93.73504096 239.18274588 93.76386965 235.01994514 93.80858803 C233.44426105 93.82142088 231.86848282 93.82592214 230.29275322 93.82131004 C211.34727462 93.77883584 195.30515279 99.54957939 181.1875 112.53515625 C168.53989907 125.61114367 162.20799131 142.42084249 162.1875 160.53515625 C163.24342235 178.73541787 170.1508047 195.68013681 183.5234375 208.28515625 C197.81405173 220.35464862 213.62108555 224.94689444 232.04956055 224.67944336 C233.17948425 224.67181976 234.30940796 224.66419617 235.47357178 224.65634155 C237.90705373 224.63990155 240.34051179 224.61953586 242.7739315 224.59559441 C248.62561324 224.54463564 254.47728031 224.54156125 260.3291508 224.53264153 C269.28667964 224.5178419 278.24339958 224.48587446 287.20043945 224.38793945 C293.91797401 224.31470555 300.6335058 224.29928496 307.351511 224.31720161 C309.90442761 224.31408214 312.45740086 224.29122406 315.00995445 224.24806023 C334.90679587 223.92492147 334.90679587 223.92492147 340.38397217 227.79194641 C342.48855845 230.62999407 343.84270127 233.2782339 345.1875 236.53515625 C346.07639995 237.90979568 346.99658319 239.26507277 347.95654297 240.59106445 C348.78324607 241.83781917 349.60761182 243.08612675 350.4296875 244.3359375 C350.88296417 245.01963913 351.33624084 245.70334076 351.80325317 246.40776062 C353.69686791 249.26414233 355.58484687 252.12423248 357.47314453 254.98413086 C362.77458025 263.00625824 368.14226545 270.95511693 373.7651062 278.75604248 C377.03171266 283.29289962 380.16225002 287.89723054 383.1875 292.59765625 C383.88166016 293.65629883 383.88166016 293.65629883 384.58984375 294.73632812 C388.41480756 300.65116346 390.92628202 305.27046636 390.1875 312.53515625 C388.49222232 318.16819919 385.70862035 321.55264224 380.68579102 324.5249939 C375.68734828 326.54607096 370.46815219 326.13925063 365.15625 326.0234375 C363.92459106 326.01636276 362.69293213 326.00928802 361.4239502 326.0019989 C357.51116813 325.97413252 353.59984561 325.91140266 349.6875 325.84765625 C347.02606261 325.81973058 344.36463893 325.79975244 341.703125 325.77929688 C335.19742327 325.72433084 328.69256594 325.64077974 322.1875 325.53515625 C322.19638245 326.64634323 322.20526489 327.75753021 322.2144165 328.90238953 C322.29582007 339.4203257 322.35561713 349.93819721 322.39474869 360.45637798 C322.41554356 365.8627361 322.44371196 371.26883808 322.48925781 376.67504883 C322.53300601 381.901121 322.55669788 387.12694818 322.56700897 392.35318947 C322.57434865 394.338111 322.58868005 396.32302049 322.61042023 398.30783653 C322.80115973 416.45848925 320.25511255 431.84527643 307.1875 445.53515625 C294.91522259 455.88339016 283.45938544 459.07213184 267.5 458.72265625 C266.30955078 458.70912109 265.11910156 458.69558594 263.89257812 458.68164062 C260.99039262 458.64667453 258.08920191 458.59760321 255.1875 458.53515625 C255.18603344 457.91800719 255.18456688 457.30085814 255.18305588 456.66500759 C255.14596766 441.63269339 255.08692649 426.60063837 255.00359726 411.56851864 C254.9638261 404.29901203 254.93142393 397.02961337 254.91650391 389.76000977 C254.90347731 383.42213707 254.87648728 377.08450209 254.83288693 370.74676329 C254.81029432 367.39242993 254.79458796 364.03838951 254.79561615 360.68397331 C254.79325157 356.93470471 254.76620993 353.18636453 254.73339844 349.43725586 C254.7384288 348.33098343 254.74345917 347.224711 254.74864197 346.08491516 C254.64753368 338.61607532 253.60136153 333.88491523 248.10717773 328.49389648 C247.36927002 327.94934814 246.6313623 327.4047998 245.87109375 326.84375 C245.03449219 326.21662109 244.19789063 325.58949219 243.3359375 324.94335938 C242.44132812 324.29302734 241.54671875 323.64269531 240.625 322.97265625 C239.22314453 321.92948242 239.22314453 321.92948242 237.79296875 320.86523438 C234.93385215 318.74214712 232.06223883 316.63702433 229.1875 314.53515625 C227.56328198 313.33924772 225.93955427 312.14267288 224.31640625 310.9453125 C221.99792898 309.23620514 219.67847517 307.52854232 217.35522461 305.82592773 C210.51054307 300.80327814 203.76492487 295.65600051 197.0234375 290.49609375 C191.28847273 286.11451299 185.50990437 281.79972667 179.6875 277.53515625 C172.06009983 271.94853205 164.53105435 266.24239287 157.0234375 260.49609375 C151.28847273 256.11451299 145.50990437 251.79972667 139.6875 247.53515625 C132.07488382 241.95936045 124.55952481 236.26544211 117.06738281 230.52905273 C110.09259644 225.1989559 103.04730954 219.9704214 95.96289062 214.78710938 C95.21716797 214.24119141 94.47144531 213.69527344 93.703125 213.1328125 C93.04602539 212.65336182 92.38892578 212.17391113 91.71191406 211.67993164 C90.1875 210.53515625 90.1875 210.53515625 89.1875 209.53515625 C89.1875 193.03515625 89.1875 176.53515625 89.1875 159.53515625 C33.4175 159.86515625 -22.3525 160.19515625 -79.8125 160.53515625 C-81.4625 163.83515625 -83.1125 167.13515625 -84.8125 170.53515625 C-91.86299736 181.94474331 -102.980433 188.35571493 -115.66650391 192.0793457 C-131.35158862 195.41086483 -147.1465031 192.4490088 -160.55859375 184.09765625 C-171.42871796 176.56204154 -179.41713672 164.7096543 -181.8125 151.53515625 C-182.90618291 134.77132808 -179.59713419 121.26889925 -169.0625 107.84765625 C-160.44948705 98.41329929 -148.95677072 92.85856662 -136.2578125 92.08984375 C-120.07773704 91.57103044 -106.02312796 93.7295107 -93.37109375 104.640625 C-87.11719265 110.62664896 -83.01833619 116.52056578 -79.8125 124.53515625 C-24.0425 124.86515625 31.7275 125.19515625 89.1875 125.53515625 C89.1875 103.75515625 89.1875 81.97515625 89.1875 59.53515625 C66.4175 59.86515625 43.6475 60.19515625 20.1875 60.53515625 C17.7125 65.48515625 17.7125 65.48515625 15.1875 70.53515625 C7.3996202 82.33452885 -3.07156516 89.35486441 -16.8125 92.53515625 C-31.67122114 94.95525933 -45.32136546 91.89862188 -57.6484375 83.23046875 C-68.73480455 74.54548084 -75.19155394 64.04781369 -77.3515625 50.0390625 C-78.68431268 35.89021466 -75.82478417 22.76184123 -67.125 11.28515625 C-59.33009979 2.22503902 -51.20023954 -2.86952761 -39.8125 -6.46484375 C-39.17957031 -6.6659375 -38.54664063 -6.86703125 -37.89453125 -7.07421875 C-24.84292429 -9.5229255 -11.32740019 -6.80893357 0 0 Z " fill="#FFFFFF" transform="translate(426.8125,658.46484375)"/>
<path d="M0 0 C0.85948242 -0.00029205 1.71896484 -0.00058411 2.60449219 -0.00088501 C5.41807494 0.00049759 8.23138594 0.01600793 11.04492188 0.03173828 C13.00646826 0.03547222 14.96801651 0.03831739 16.92956543 0.04031372 C22.07191185 0.04792016 27.21414384 0.06754281 32.35644531 0.08972168 C37.61196342 0.1102447 42.86750017 0.11932921 48.12304688 0.12939453 C58.41997193 0.15079166 68.71681235 0.18489128 79.01367188 0.22705078 C80.12800486 3.35681842 81.23544096 6.48898656 82.34179688 9.62158203 C82.65262207 10.49431763 82.96344727 11.36705322 83.28369141 12.26623535 C88.94183589 28.32363359 93.04699143 45.00149156 94.54980469 61.98486328 C94.68119843 63.46043701 94.68119843 63.46043701 94.81524658 64.96582031 C94.9134671 66.08512939 94.9134671 66.08512939 95.01367188 67.22705078 C81.34845758 67.29665021 67.68328567 67.34991269 54.01793003 67.3824873 C47.67212716 67.39812375 41.32644583 67.4193254 34.98071289 67.45336914 C28.85341642 67.48603421 22.72623664 67.50391899 16.59885979 67.51168251 C14.26455792 67.51721315 11.93026222 67.52801311 9.59601021 67.54424095 C6.31915757 67.56610983 3.04278335 67.5690137 -0.23413086 67.56762695 C-1.19295166 67.57841278 -2.15177246 67.58919861 -3.13964844 67.60031128 C-14.15884274 67.55005752 -21.66751588 64.04969763 -29.67773438 56.66845703 C-35.76183505 50.30988565 -38.16433834 42.46655 -38.54882812 33.78955078 C-38.24161507 24.88037208 -34.97710774 16.27085891 -28.77929688 9.75439453 C-20.12147515 2.37921307 -11.13955589 -0.10086799 0 0 Z " fill="#FFFFFF" transform="translate(653.986328125,783.77294921875)"/>
</svg>
