<?xml version="1.0" encoding="UTF-8"?>
<svg version="1.1" xmlns="http://www.w3.org/2000/svg" width="2000" height="2000">
<path d="M0 0 C8.5968743 7.35780029 16.16508982 14.94584958 22.1875 24.5625 C22.84621094 25.60019531 23.50492188 26.63789062 24.18359375 27.70703125 C38.87044679 52.00003014 42.84126706 80.16982012 36.453125 107.7578125 C32.28547352 124.27626606 24.81270872 138.26727325 14.1875 151.5625 C13.57261719 152.34496094 12.95773437 153.12742188 12.32421875 153.93359375 C2.49588434 165.74022245 -12.2204251 176.83663302 -27.03417969 181.16601562 C-27.93029968 181.42950806 -28.82641968 181.69300049 -29.74969482 181.96447754 C-30.43042053 182.16182495 -31.11114624 182.35917236 -31.8125 182.5625 C-31.80973462 183.72795601 -31.80696924 184.89341202 -31.80412006 186.09418488 C-31.7390154 213.81783661 -31.68961304 241.54148236 -31.65930401 269.26519462 C-31.65555231 272.68444629 -31.6516693 276.10369779 -31.64770508 279.52294922 C-31.64691815 280.20360303 -31.64613122 280.88425685 -31.64532044 281.58553654 C-31.63229968 292.57754746 -31.6086644 303.56951087 -31.58104161 314.56149369 C-31.55289436 325.85717049 -31.53652839 337.15282373 -31.53023452 348.44853735 C-31.52633562 354.78605648 -31.51722076 361.12346818 -31.49530983 367.46095276 C-31.47481999 373.43629037 -31.46869132 379.41147713 -31.47317696 385.38684654 C-31.47235732 387.56998708 -31.4664667 389.7531331 -31.45488358 391.93624306 C-31.36149938 410.45836502 -33.49659997 426.40414624 -40.8125 443.5625 C-41.24175781 444.58859375 -41.67101563 445.6146875 -42.11328125 446.671875 C-52.72727494 469.84106476 -73.37689973 488.77033384 -96.8125 498.5625 C-108.28201519 502.72854704 -119.47884951 505.73331065 -131.75352478 505.68275452 C-132.52313005 505.68360894 -133.29273531 505.68446337 -134.08566195 505.68534368 C-136.64819658 505.68698252 -139.21066482 505.68150341 -141.77319336 505.67602539 C-143.61656696 505.67574315 -145.45994067 505.67590198 -147.30331421 505.6764679 C-152.29655198 505.67675442 -157.28976566 505.67088103 -162.28299785 505.66389394 C-167.50536015 505.65763636 -172.72772303 505.6570547 -177.9500885 505.65586853 C-187.83445717 505.65276231 -197.71881476 505.64455847 -207.60317856 505.63451904 C-218.85826431 505.6233359 -230.11335059 505.6178419 -241.36844051 505.61282361 C-264.51646789 505.60237527 -287.66448009 505.58403859 -310.8125 505.5625 C-310.8125 528.6625 -310.8125 551.7625 -310.8125 575.5625 C-300.11610107 575.54155273 -289.41970215 575.52060547 -278.39916992 575.49902344 C-244.16596578 575.43480943 -209.9327614 575.3903241 -175.69951267 575.35823868 C-170.38113655 575.35323592 -165.06276061 575.34805862 -159.74438477 575.34277344 C-158.68560194 575.3417242 -157.62681911 575.34067495 -156.53595195 575.33959392 C-139.39735974 575.32219366 -122.25882126 575.29065803 -105.12026092 575.25388882 C-87.53156814 575.21646889 -69.94290348 575.19426191 -52.35417253 575.18614602 C-41.50294869 575.18066044 -30.65187672 575.16334116 -19.80069963 575.13083413 C-12.35736267 575.10967328 -4.91410411 575.10330353 2.52926073 575.10849449 C6.82226749 575.11105381 11.11500905 575.10715941 15.40796852 575.0856781 C19.34330046 575.06613067 23.27819032 575.06528264 27.21354314 575.07890442 C28.63231176 575.08058654 30.05110861 575.07558172 31.46982215 575.06296727 C44.98250284 574.94986921 54.9868771 577.81852431 64.87109375 587.15234375 C71.0865444 593.73979144 74.30799481 602.52538906 74.1875 611.5625 C73.29657645 622.38085741 69.39725134 631.34702626 61.44140625 638.8046875 C54.63598315 644.11220985 47.69313322 646.68855683 39.13552475 646.68554783 C37.88747173 646.68753888 36.63941871 646.68952993 35.3535459 646.69158131 C33.96614549 646.68872826 32.57874526 646.68578267 31.19134521 646.68275452 C29.71946388 646.68319047 28.24758261 646.68406582 26.77570176 646.68534368 C22.72576899 646.68758391 18.67586258 646.68357377 14.62593317 646.67856562 C10.26059119 646.67425457 5.89525074 646.67570801 1.52990723 646.6764679 C-6.0351217 646.67699271 -13.60014201 646.6738503 -21.16516876 646.66823006 C-32.10298126 646.66010938 -43.04078958 646.65749925 -53.97860476 646.65624207 C-71.7236946 646.65405244 -89.46877984 646.64739478 -107.21386719 646.63793945 C-124.45345029 646.62876302 -141.69303214 646.62168332 -158.93261719 646.61743164 C-159.99493672 646.61716892 -161.05725625 646.61690619 -162.15176728 646.61663551 C-167.4810141 646.61533049 -172.81026093 646.61406678 -178.13950777 646.61282361 C-222.36384259 646.60245378 -266.58816892 646.58401697 -310.8125 646.5625 C-310.8125 669.6625 -310.8125 692.7625 -310.8125 716.5625 C-260.80641898 716.50092588 -210.80034142 716.43781358 -160.79428101 716.36117554 C-160.05413963 716.36004191 -159.31399825 716.35890829 -158.55142835 716.35774031 C-142.46604457 716.3330887 -126.38066151 716.30799581 -110.29527912 716.28244839 C-102.40697658 716.26992257 -94.51867388 716.25749425 -86.63037109 716.24511719 C-85.84539143 716.24388386 -85.06041176 716.24265054 -84.25164483 716.24137984 C-58.80959648 716.20145214 -33.36754461 716.1679627 -7.92548295 716.13781309 C18.22020384 716.10679565 44.36587344 716.06928074 70.5115389 716.02359388 C74.20468982 716.01714351 77.89784085 716.01076739 81.59099197 716.00443649 C82.3178549 716.00318819 83.04471782 716.00193988 83.79360689 716.00065375 C95.49264878 715.98075292 107.19168876 715.96769859 118.89074245 715.95720672 C130.65311108 715.94651189 142.4154496 715.92843868 154.17779641 715.90333296 C160.55053139 715.88994684 166.92322875 715.87979975 173.29597855 715.87828636 C179.13030793 715.87683005 184.96454668 715.86623234 190.79884823 715.84836559 C192.90937045 715.84351576 195.01990362 715.84201998 197.13043027 715.84422119 C200.00115511 715.84672374 202.87159287 715.83696444 205.74228477 715.82421303 C206.55990034 715.82786271 207.37751591 715.83151239 208.2199077 715.83527267 C219.64422202 715.7480509 230.51557144 713.23199298 239.0625 705.25 C249.09792906 694.31728551 248.49013147 680.40483696 248.50634766 666.46655273 C248.51565582 664.63273176 248.5258258 662.79891498 248.53678894 660.96510315 C248.56400289 656.00712543 248.57921278 651.04917599 248.59221697 646.09114337 C248.60788526 640.90212446 248.63466365 635.71316297 248.6602478 630.52418518 C248.70697021 620.70720044 248.74374593 610.89020481 248.77692068 601.07316595 C248.81518832 589.8929651 248.8645863 578.71282201 248.91490483 567.5326699 C249.01812742 544.54265612 249.10741922 521.55260521 249.1875 498.5625 C248.43678223 498.42980713 247.68606445 498.29711426 246.91259766 498.16040039 C224.91572938 493.33417477 205.7053489 473.40894202 194.06640625 455.25390625 C179.30988294 431.12821661 175.27466335 403.1183646 180.96875 375.51171875 C187.42251664 349.16811096 203.83238902 324.40563065 227.1484375 310.0546875 C242.78375544 300.84061742 259.87096736 294.25883099 278.1875 293.5625 C279.08082031 293.52253906 279.97414063 293.48257812 280.89453125 293.44140625 C298.42592103 293.04243219 315.5074884 296.6072 331.1875 304.5625 C332.033125 304.98015625 332.87875 305.3978125 333.75 305.828125 C357.59032962 318.15465907 376.62881427 339.41231536 384.99707031 365.04199219 C393.76191201 394.35189286 391.81237613 424.1053111 377.29833984 451.31274414 C365.0456337 473.05993208 345.90533747 488.79968226 323.1875 498.5625 C322.1975 498.5625 321.2075 498.5625 320.1875 498.5625 C320.18934359 499.50450193 320.19118717 500.44650387 320.19308662 501.41705132 C320.2376125 524.40604024 320.27041145 547.39502352 320.29112434 570.38404655 C320.30140882 581.50165216 320.31541467 592.61922917 320.33837891 603.73681641 C320.35839982 613.43413696 320.37123696 623.13143678 320.37567699 632.82877743 C320.37826972 637.95685019 320.38430388 643.08486369 320.39896011 648.21291733 C320.41268197 653.05393105 320.4166936 657.89486192 320.41371536 662.73589325 C320.41425907 664.49892504 320.41814856 666.26196003 320.42591095 668.02497482 C320.46264502 676.80983276 320.25154363 685.47834103 319.30612183 694.21829224 C319.22957811 694.93103739 319.1530344 695.64378254 319.07417119 696.37812603 C315.85383875 723.16794419 300.433874 748.38348526 279.625 765.1875 C255.90921094 783.6041089 229.06115501 788.05356777 199.78817749 787.92326355 C197.57412277 787.92457445 195.36006852 787.92720607 193.14601672 787.93103105 C187.10958546 787.93769215 181.07331597 787.92580402 175.03690529 787.91069686 C169.18138221 787.89901724 163.32587611 787.90158378 157.4703443 787.90374239 C145.50518539 787.90766823 133.54007647 787.8977205 121.5749321 787.87969017 C109.7388522 787.8619003 97.90279315 787.85038452 86.06669998 787.84713173 C85.32901446 787.84692551 84.59132894 787.84671929 83.83128931 787.84650682 C80.08450665 787.84549173 76.33772397 787.84458762 72.59094127 787.8437262 C46.09642066 787.83743563 19.6019272 787.81725343 -6.89257812 787.78881836 C-32.62141781 787.76123704 -58.35025004 787.73999995 -84.07910156 787.72729492 C-84.87306589 787.72690034 -85.66703022 787.72650576 -86.48505408 787.72609923 C-94.45883303 787.72214345 -102.43261203 787.71831604 -110.40639109 787.71458265 C-126.64791143 787.70697531 -142.88943129 787.69851156 -159.13095093 787.68952942 C-159.8776053 787.68911755 -160.62425968 787.68870568 -161.39353995 787.68828133 C-184.26566928 787.67561953 -207.13779402 787.65933006 -230.00991821 787.63945007 C-231.93093029 787.63778257 -231.93093029 787.63778257 -233.89075069 787.63608138 C-259.53133573 787.61360415 -285.17191741 787.58759518 -310.8125 787.5625 C-310.8125 822.2125 -310.8125 856.8625 -310.8125 892.5625 C-54.0725 892.5625 202.6675 892.5625 467.1875 892.5625 C467.5175 890.9125 467.8475 889.2625 468.1875 887.5625 C469.31616579 884.96741308 470.47715746 882.45922005 471.75 879.9375 C472.10715088 879.22964355 472.46430176 878.52178711 472.83227539 877.79248047 C485.51747805 853.26794083 507.31707911 835.62521501 533.1875 826.5625 C561.38665534 818.20453656 590.60665832 820.61886398 616.54296875 834.5390625 C617.75948241 835.21052508 618.97444699 835.88480547 620.1875 836.5625 C621.17363281 837.10648438 622.15976563 837.65046875 623.17578125 838.2109375 C645.80655625 851.63874901 662.20891375 875.18185294 668.69995117 900.47631836 C670.68141514 908.95484094 671.54733364 917.04128675 671.5 925.75 C671.49436035 926.84497803 671.4887207 927.93995605 671.48291016 929.06811523 C671.11857226 953.5563111 662.29959291 975.34812239 647.1875 994.5625 C646.63449219 995.27019531 646.08148437 995.97789062 645.51171875 996.70703125 C628.4707197 1017.32704681 601.87681295 1029.23600201 575.7734375 1032.25 C547.62985192 1034.70260005 519.55392937 1025.89160053 497.8203125 1007.87109375 C484.21518851 995.94137821 473.71218353 982.61685572 467.1875 965.5625 C467.1875 964.9025 467.1875 964.2425 467.1875 963.5625 C210.4475 963.5625 -46.2925 963.5625 -310.8125 963.5625 C-310.8125 998.2125 -310.8125 1032.8625 -310.8125 1068.5625 C-286.50746826 1068.5310791 -286.50746826 1068.5310791 -261.71142578 1068.49902344 C-250.89014718 1068.48562403 -240.06886884 1068.47230724 -229.24758911 1068.4598999 C-228.56006337 1068.45911057 -227.87253763 1068.45832123 -227.16417777 1068.45750798 C-204.00975443 1068.43099673 -180.85532951 1068.4099986 -157.70089722 1068.39312744 C-156.94494345 1068.39257521 -156.18898968 1068.39202298 -155.41012822 1068.39145402 C-138.97929088 1068.37948103 -122.54845306 1068.3684005 -106.11761452 1068.35823868 C-98.0593666 1068.35324955 -90.00111882 1068.3480633 -81.94287109 1068.34277344 C-81.14099939 1068.3422504 -80.33912768 1068.34172737 -79.51295683 1068.34118848 C-53.54478071 1068.32415792 -27.57663951 1068.29412378 -1.60848453 1068.25731112 C25.08802539 1068.21953487 51.78451599 1068.1949476 78.48105219 1068.18684004 C82.25596482 1068.1856875 86.03087739 1068.18438496 89.80578995 1068.18299103 C90.54871129 1068.18272134 91.29163264 1068.18245164 92.05706675 1068.18217378 C103.99259736 1068.17745587 115.92806807 1068.15892789 127.8635743 1068.13517186 C139.87700273 1068.11155777 151.89037208 1068.10264432 163.90382288 1068.10849449 C170.40721476 1068.11125985 176.91046587 1068.10717447 183.4138298 1068.0856781 C189.37692697 1068.06611221 195.33973245 1068.065295 201.30284347 1068.07890442 C203.45120386 1068.08058471 205.59958298 1068.07559622 207.74790691 1068.06296727 C236.3680765 1067.90461295 262.42857784 1075.40720955 284.1875 1094.5625 C285.734375 1095.738125 285.734375 1095.738125 287.3125 1096.9375 C308.69491991 1116.46057905 318.95490296 1144.51376073 320.29733133 1172.88358927 C320.46367187 1178.48211531 320.43920851 1184.07984957 320.41455078 1189.68017578 C320.41398483 1191.51531976 320.4143068 1193.35046419 320.41543579 1195.18560791 C320.41600315 1200.10591365 320.40435029 1205.02611932 320.39028788 1209.94640207 C320.37767617 1215.11130657 320.37660187 1220.27621407 320.37423706 1225.44113159 C320.36805267 1235.19411135 320.35168358 1244.94704558 320.33153808 1254.70000541 C320.3090837 1265.81507799 320.2981618 1276.93015289 320.28814721 1288.04524255 C320.26731422 1310.88435348 320.23219821 1333.72342417 320.1875 1356.5625 C321.20614136 1356.85668571 321.20614136 1356.85668571 322.24536133 1357.15681458 C323.1402124 1357.41935532 324.03506348 1357.68189606 324.95703125 1357.95239258 C325.84237549 1358.21039139 326.72771973 1358.4683902 327.63989258 1358.73420715 C337.55914574 1361.95921206 346.41002335 1368.8151527 354.1875 1375.5625 C355.00734375 1376.23796875 355.8271875 1376.9134375 356.671875 1377.609375 C377.73403806 1395.53183673 388.52031528 1421.4719335 391.1875 1448.5625 C393.24564053 1474.59052072 384.61710979 1502.27256059 367.9375 1522.40625 C351.74035359 1541.23249844 332.54879156 1553.81854618 308.1875 1559.5625 C306.83398438 1559.90087891 306.83398438 1559.90087891 305.453125 1560.24609375 C277.92080615 1566.015149 248.68739753 1559.541894 225.1875 1544.5625 C201.73952294 1528.35357724 185.56087692 1504.99566729 179.3125 1477.125 C174.11233818 1448.56928164 180.03019014 1419.19524029 196.43359375 1395.2890625 C209.8142731 1376.92465169 227.06068868 1363.927482 248.1875 1355.5625 C248.2342469 1331.59694164 248.26950205 1307.63139012 248.29112434 1283.66579533 C248.30143136 1272.53784218 248.31548074 1261.40991737 248.33837891 1250.28198242 C248.35833034 1240.58145247 248.37122062 1230.88094306 248.37567699 1221.18039316 C248.37828139 1216.04534165 248.38439097 1210.91034889 248.39896011 1205.77531624 C248.41257169 1200.93843441 248.4167154 1196.10163533 248.41371536 1191.26473618 C248.41426393 1189.49308637 248.41822 1187.72143369 248.42591095 1185.94980049 C248.48391954 1171.89354826 247.89822432 1159.8252552 238.125 1148.8125 C229.02117366 1140.26523946 216.83658964 1139.40910044 205.0039978 1139.4238348 C204.10837086 1139.42099258 203.21274392 1139.41815036 202.28997678 1139.41522202 C199.291453 1139.4069058 196.29296801 1139.40560922 193.29443359 1139.40428162 C191.12200803 1139.39971418 188.94958335 1139.39471388 186.77715969 1139.38931805 C180.80941016 1139.37574831 174.84166633 1139.36832194 168.87390542 1139.36189139 C162.43771463 1139.35388235 156.00153567 1139.3401863 149.56535339 1139.32717896 C138.41483981 1139.30525324 127.26432408 1139.28724113 116.11380005 1139.27157402 C104.4201716 1139.25512883 92.7265493 1139.23664432 81.03292847 1139.21544075 C80.30564632 1139.21412314 79.57836418 1139.21280554 78.82904319 1139.211448 C75.13549122 1139.20474585 71.44193933 1139.1980073 67.74838746 1139.19125474 C41.59219265 1139.1435014 15.43599211 1139.10031359 -10.72021484 1139.05981445 C-36.12939878 1139.02046152 -61.53857796 1138.97903825 -86.94775391 1138.93481445 C-87.73108105 1138.93345192 -88.5144082 1138.93208939 -89.32147253 1138.93068558 C-97.18802059 1138.91700011 -105.05456859 1138.90327258 -112.92111653 1138.88951423 C-128.94594576 1138.86148827 -144.97077546 1138.83374304 -160.99560547 1138.8061676 C-161.73238883 1138.8048994 -162.4691722 1138.8036312 -163.22828233 1138.80232458 C-212.42301391 1138.71767962 -261.6177564 1138.63980391 -310.8125 1138.5625 C-310.8125 1161.6625 -310.8125 1184.7625 -310.8125 1208.5625 C-294.95751465 1208.53893433 -294.95751465 1208.53893433 -278.78222656 1208.51489258 C-244.94792858 1208.46672515 -211.11363046 1208.4333651 -177.27930708 1208.40930401 C-172.0223049 1208.40555197 -166.76530281 1208.40166899 -161.50830078 1208.39770508 C-160.46174272 1208.39691815 -159.41518466 1208.39613122 -158.33691272 1208.39532044 C-141.39947068 1208.38227267 -124.46205924 1208.35862228 -107.52463534 1208.33104161 C-90.14046854 1208.30296993 -72.75631774 1208.28632001 -55.3721292 1208.28023452 C-44.64838104 1208.27612174 -33.92471939 1208.26313985 -23.20099786 1208.2387506 C-15.84362893 1208.22287166 -8.48630462 1208.21810453 -1.12891981 1208.22199587 C3.11353434 1208.22391405 7.35583751 1208.22100929 11.59826469 1208.20488358 C15.48856144 1208.19020489 19.37860673 1208.18959886 23.26891544 1208.19980332 C24.67020148 1208.20106313 26.07150369 1208.19732529 27.47275826 1208.18785045 C40.1076226 1208.10744214 52.00173773 1209.47744086 62.1875 1217.5625 C68.68710203 1224.07457727 73.52607341 1232.93072983 74.28125 1242.23828125 C73.8469649 1253.00493267 70.81224071 1261.92673039 63.1953125 1269.55859375 C52.93721189 1278.86830393 44.31976601 1279.86228033 30.83058167 1279.80300903 C29.3561106 1279.8038817 27.88163983 1279.8056338 26.40717071 1279.80818737 C22.36398599 1279.81265295 18.3209075 1279.80466806 14.27773631 1279.79463124 C9.91449213 1279.78598768 5.55125387 1279.78891755 1.18800354 1279.79043579 C-6.36879837 1279.79148407 -13.92556572 1279.78521344 -21.48235893 1279.77396011 C-32.40818491 1279.75770033 -43.33399419 1279.75249662 -54.25983096 1279.74998413 C-71.98662529 1279.74560778 -89.71340121 1279.7323003 -107.44018555 1279.71337891 C-124.65926013 1279.69501856 -141.87832971 1279.68086281 -159.09741211 1279.67236328 C-160.15894347 1279.67183783 -161.22047483 1279.67131239 -162.31417381 1279.67077102 C-167.6396087 1279.66816093 -172.96504363 1279.66563351 -178.29047859 1279.66314721 C-222.46450208 1279.64241658 -266.63849151 1279.60554781 -310.8125 1279.5625 C-310.8125 1302.6625 -310.8125 1325.7625 -310.8125 1349.5625 C-302.67605835 1349.53893433 -302.67605835 1349.53893433 -294.37524414 1349.51489258 C-276.41809638 1349.46509888 -258.46094583 1349.43185877 -240.50374699 1349.40706348 C-229.62038196 1349.39163437 -218.73708262 1349.37062099 -207.85375977 1349.33618164 C-198.36117345 1349.30615763 -188.86863474 1349.28689629 -179.37600225 1349.28023452 C-174.35579781 1349.27634417 -169.33572948 1349.26728497 -164.31556892 1349.24530983 C-159.57712705 1349.22473863 -154.83887559 1349.21870727 -150.1003933 1349.22317696 C-148.37402431 1349.22236088 -146.64764802 1349.21651942 -144.92131805 1349.20488358 C-130.54933398 1349.11287771 -116.42895635 1350.44910412 -102.75 1355.1875 C-102.01523438 1355.43838379 -101.28046875 1355.68926758 -100.5234375 1355.94775391 C-88.29797482 1360.33833066 -77.60980898 1367.08660071 -67.8125 1375.5625 C-66.801875 1376.325625 -65.79125 1377.08875 -64.75 1377.875 C-60.23368393 1382.00694875 -56.55737198 1386.73358614 -52.8125 1391.5625 C-52.20148438 1392.33464844 -51.59046875 1393.10679688 -50.9609375 1393.90234375 C-38.13377558 1411.03451207 -31.67826042 1432.81129985 -31.65428162 1454.06004333 C-31.64934364 1454.99707425 -31.64440566 1455.93410516 -31.63931805 1456.89953095 C-31.62400168 1460.02864066 -31.61559835 1463.15772994 -31.60717773 1466.28686523 C-31.5975946 1468.53417642 -31.58758427 1470.78148581 -31.57717896 1473.02879333 C-31.550171 1479.12321433 -31.52913918 1485.21764304 -31.50917697 1491.31209064 C-31.48729207 1497.68358432 -31.45991563 1504.05505434 -31.43312073 1510.42652893 C-31.38889596 1521.11857108 -31.34805503 1531.81062076 -31.30981445 1542.50268555 C-31.27042479 1553.51343738 -31.2289903 1564.5241784 -31.18481445 1575.53491211 C-31.18209018 1576.21410804 -31.17936591 1576.89330396 -31.17655908 1577.59308159 C-31.16287903 1581.00055553 -31.14915887 1584.4080293 -31.13541877 1587.815503 C-31.02156109 1616.06447944 -30.91480045 1644.31347952 -30.8125 1672.5625 C-30.2713002 1672.81157104 -29.7301004 1673.06064209 -29.17250061 1673.31726074 C-26.6863082 1674.46573773 -24.20450238 1675.6234125 -21.72265625 1676.78125 C-20.87143188 1677.17280273 -20.02020752 1677.56435547 -19.14318848 1677.96777344 C-11.90418175 1681.35795149 -5.91540034 1685.36641992 0.1875 1690.5625 C1.04472656 1691.27019531 1.90195313 1691.97789063 2.78515625 1692.70703125 C21.67203053 1708.90829126 36.00224074 1733.41684312 38.1875 1758.5625 C38.94691628 1772.67272565 39.23509368 1786.91211323 35.1875 1800.5625 C34.85878906 1801.68785156 34.53007813 1802.81320312 34.19140625 1803.97265625 C29.46985102 1818.46407316 22.290098 1831.20432099 12.1875 1842.5625 C11.22650391 1843.81160156 11.22650391 1843.81160156 10.24609375 1845.0859375 C6.50291164 1849.58912053 1.79375303 1852.9826067 -2.8125 1856.5625 C-3.59753906 1857.17480469 -4.38257813 1857.78710938 -5.19140625 1858.41796875 C-27.70177616 1875.06269236 -55.55178612 1880.99327652 -83.08203125 1877.34375 C-109.91722823 1873.22620906 -134.34965049 1858.80648664 -151.203125 1837.546875 C-168.34989086 1813.86800786 -176.40178406 1785.46129064 -172.125 1756.29296875 C-168.69321619 1736.33862314 -160.3878104 1719.39312124 -147.8125 1703.5625 C-147.27109375 1702.85351562 -146.7296875 1702.14453125 -146.171875 1701.4140625 C-136.43890864 1689.37074553 -122.09257559 1680.62806643 -108.09692383 1674.45288086 C-106.89064079 1673.91974525 -106.89064079 1673.91974525 -105.6599884 1673.37583923 C-105.05031723 1673.10743729 -104.44064606 1672.83903534 -103.8125 1672.5625 C-103.7424076 1643.51198149 -103.68951064 1614.46147567 -103.65706348 1585.41088963 C-103.65400397 1582.7251796 -103.65088001 1580.03946966 -103.64770508 1577.35375977 C-103.64652468 1576.35245439 -103.64652468 1576.35245439 -103.64532044 1575.33092063 C-103.63227718 1564.5314095 -103.60862931 1553.73194642 -103.58104161 1542.93246377 C-103.55295732 1531.84587367 -103.53654181 1520.75930313 -103.53023452 1509.67267841 C-103.52632484 1503.44772342 -103.51714092 1497.22287731 -103.49530983 1490.99795723 C-103.47492111 1485.13672848 -103.4686711 1479.27565331 -103.47317696 1473.41439247 C-103.47235283 1471.26540034 -103.46640152 1469.11640298 -103.45488358 1466.96744156 C-103.43990229 1464.02767277 -103.44356708 1461.08847971 -103.45173645 1458.1486969 C-103.43862866 1456.88066163 -103.43862866 1456.88066163 -103.42525607 1455.58700949 C-103.49649034 1446.06787177 -106.45280048 1438.6168269 -112.8125 1431.5625 C-120.67321285 1423.92014029 -128.76135435 1421.32956943 -139.57006836 1421.2840271 C-140.30785963 1421.2782347 -141.0456509 1421.2724423 -141.80579948 1421.26647437 C-144.2546931 1421.24959699 -146.70339687 1421.24660855 -149.15234375 1421.24365234 C-150.91705277 1421.23434568 -152.68175741 1421.22417592 -154.44645691 1421.21321106 C-159.22061505 1421.18598022 -163.99474379 1421.17078219 -168.76895905 1421.15778303 C-173.7644639 1421.14212218 -178.75990901 1421.11534139 -183.75537109 1421.0897522 C-193.20760381 1421.04301668 -202.65984784 1421.00624728 -212.11213684 1420.97307932 C-222.87636254 1420.93482098 -233.64052815 1420.88542055 -244.40470314 1420.83509517 C-266.54059102 1420.73185306 -288.67651696 1420.64256758 -310.8125 1420.5625 C-310.81136084 1421.44876658 -310.81022168 1422.33503316 -310.809048 1423.24815631 C-310.74190618 1475.78157823 -310.69043647 1528.3149956 -310.65930401 1580.84845184 C-310.65555192 1587.15694322 -310.65166895 1593.46543452 -310.64770508 1599.77392578 C-310.64691815 1601.02982688 -310.64613122 1602.28572797 -310.64532044 1603.57968667 C-310.63226838 1623.91205237 -310.60861562 1644.24439261 -310.58104161 1664.57674322 C-310.55298188 1685.44134853 -310.53632253 1706.30594052 -310.53023452 1727.17056394 C-310.52611927 1740.04396833 -310.51312389 1752.91730076 -310.4887506 1765.790683 C-310.47288642 1774.61978518 -310.4681012 1783.44885018 -310.47199587 1792.27796558 C-310.47391633 1797.3710217 -310.47098297 1802.46395211 -310.45488358 1807.55698586 C-310.44023749 1812.22444702 -310.43957814 1816.89169843 -310.44980332 1821.55916944 C-310.45106627 1823.24309071 -310.44730077 1824.9270253 -310.43785045 1826.61092052 C-310.33986175 1845.15712005 -314.15737499 1861.6797779 -327.43359375 1875.3828125 C-339.32302244 1886.27657475 -353.1011026 1892.00214758 -369.18359375 1891.7890625 C-370.0491539 1891.78250641 -370.91471405 1891.77595032 -371.8065033 1891.76919556 C-380.87800273 1891.64184773 -389.85659195 1890.87747629 -398.875 1889.9375 C-400.17318161 1889.8059552 -400.17318161 1889.8059552 -401.49758911 1889.67175293 C-475.13471614 1882.17992565 -546.92599669 1866.37728263 -616.87347412 1842.23120117 C-618.65507066 1841.61679179 -620.43806538 1841.00644068 -622.22119141 1840.39648438 C-651.33264959 1830.39870216 -679.74042477 1818.49556971 -707.47167969 1805.16308594 C-710.64180854 1803.64427822 -713.82206932 1802.14978566 -717.0078125 1800.6640625 C-729.32017944 1794.89861 -741.28974017 1788.64823136 -753.16455078 1782.03125 C-755.74620456 1780.59927239 -758.33750536 1779.1868614 -760.93359375 1777.78125 C-804.8196265 1753.97945081 -846.89978523 1725.83663382 -885.8125 1694.5625 C-886.4528418 1694.0483252 -887.09318359 1693.53415039 -887.75292969 1693.00439453 C-896.33485922 1686.10027578 -904.82512475 1679.09644933 -913.19726562 1671.93945312 C-914.86084543 1670.52128654 -916.53145876 1669.11174683 -918.203125 1667.703125 C-925.07978203 1661.88709506 -931.76617113 1655.90828711 -938.31201172 1649.72143555 C-941.54623452 1646.66517237 -944.81992668 1643.67464526 -948.16015625 1640.734375 C-955.41798597 1634.22215613 -962.25214721 1627.27185791 -969.13598633 1620.36938477 C-971.5016419 1617.99835437 -973.87261514 1615.63273578 -976.24414062 1613.26757812 C-977.77115417 1611.73990396 -979.29785757 1610.21191972 -980.82421875 1608.68359375 C-981.52230148 1607.98753525 -982.22038422 1607.29147675 -982.93962097 1606.57432556 C-986.87332508 1602.62205687 -990.6349541 1598.57244468 -994.2698822 1594.3432312 C-996.66757452 1591.57543899 -999.18250879 1588.92027593 -1001.6875 1586.25 C-1006.22598524 1581.37664451 -1010.50598797 1576.35946023 -1014.67578125 1571.1640625 C-1016.77132494 1568.61263271 -1018.95213155 1566.17923227 -1021.1875 1563.75 C-1025.70903512 1558.78179677 -1029.82402206 1553.55446423 -1033.9375 1548.25 C-1036.30262633 1545.20175817 -1038.71658792 1542.19699264 -1041.14697266 1539.20068359 C-1048.07767959 1530.63976083 -1054.62400824 1521.81905833 -1061.09960938 1512.91064453 C-1062.69592778 1510.72230496 -1064.30633647 1508.54526199 -1065.921875 1506.37109375 C-1085.35419743 1480.06119566 -1102.68426563 1451.99265875 -1118.8125 1423.5625 C-1119.21500977 1422.85657715 -1119.61751953 1422.1506543 -1120.03222656 1421.42333984 C-1128.03626135 1407.35574151 -1135.50940176 1393.00440819 -1142.8125 1378.5625 C-1143.26332947 1377.67111328 -1143.26332947 1377.67111328 -1143.7232666 1376.76171875 C-1161.70807187 1341.11659507 -1176.73419099 1304.26983379 -1189.8125 1266.5625 C-1190.08300171 1265.78364441 -1190.35350342 1265.00478882 -1190.63220215 1264.20233154 C-1218.40161375 1183.9835867 -1233.92830096 1099.59575343 -1239.375 992.6875 C-1239.39584656 991.89625732 -1239.41669312 991.10501465 -1239.43817139 990.28979492 C-1239.74045611 978.71027882 -1240.02017319 967.14582525 -1239.8125 955.5625 C-1239.79461426 954.3751123 -1239.77672852 953.18772461 -1239.75830078 951.96435547 C-1238.4364488 868.66142266 -1226.46446117 785.73465298 -1168.8125 608.5625 C-1168.53748657 607.89152283 -1168.26247314 607.22054565 -1167.97912598 606.52923584 C-1151.07823681 565.42682116 -1130.6669267 525.65526016 -1107.8125 487.5625 C-1107.18762695 486.51884277 -1106.56275391 485.47518555 -1105.91894531 484.39990234 C-1096.10116626 468.06408546 -1085.68495224 452.2133797 -1074.8125 436.5625 C-1074.2664209 435.77053223 -1073.7203418 434.97856445 -1073.15771484 434.16259766 C-1065.33017314 422.81203397 -1057.03354444 411.84098828 -1048.62353516 400.91699219 C-1047.03935888 398.85743489 -1045.46113925 396.79357947 -1043.88671875 394.7265625 C-1035.67395709 383.95827119 -1027.0330953 373.56547539 -1018.25390625 363.25830078 C-1016.81050384 361.56015154 -1015.37368577 359.85659807 -1013.9375 358.15234375 C-1008.12598754 351.28286789 -1002.15252149 344.6027287 -995.97143555 338.06298828 C-992.92517722 334.83935288 -989.94491518 331.57656855 -987.015625 328.24609375 C-980.35945578 320.82783221 -973.2468413 313.84798938 -966.19213867 306.81176758 C-963.74868078 304.37368368 -961.31063193 301.93028211 -958.87304688 299.48632812 C-957.29979979 297.91374167 -955.72624263 296.34146536 -954.15234375 294.76953125 C-953.43441147 294.04957474 -952.71647919 293.32961823 -951.97679138 292.58784485 C-947.97107191 288.60039594 -943.87321627 284.78071377 -939.58554077 281.09742737 C-936.81968979 278.70302086 -934.16763127 276.19001024 -931.5 273.6875 C-926.6314425 269.15348306 -921.61917836 264.87757219 -916.4296875 260.7109375 C-913.79408387 258.54738228 -911.26826625 256.2986044 -908.75 254 C-903.93759075 249.6257693 -898.93050125 245.57172336 -893.8125 241.5625 C-892.82121094 240.77617187 -891.82992188 239.98984375 -890.80859375 239.1796875 C-851.70589517 208.19632002 -810.45194109 179.80207677 -766.8125 155.5625 C-765.95011719 155.08248535 -765.08773438 154.6024707 -764.19921875 154.10791016 C-695.79005085 116.14082197 -623.55456954 86.41790206 -547.8125 66.5625 C-547.04417847 66.36096313 -546.27585693 66.15942627 -545.48425293 65.95178223 C-380.53815021 22.87346448 -380.53815021 22.87346448 -336.2578125 47.4296875 C-324.06983204 54.65363864 -315.85599236 66.98196382 -312.28846943 80.55644453 C-310.60157079 88.02100022 -310.53825381 95.27284632 -310.57199097 102.90054321 C-310.57111747 104.33635546 -310.56936385 105.7721674 -310.56681263 107.20797765 C-310.56236333 111.13037008 -310.57030931 115.05265226 -310.58036876 118.97503066 C-310.589036 123.21347647 -310.58608079 127.45191647 -310.58456421 131.69036865 C-310.58351742 139.02612394 -310.58977242 146.36184356 -310.60103989 153.69758987 C-310.61731995 164.30373701 -310.62250546 174.90986696 -310.62501587 185.51602523 C-310.62938904 202.72537425 -310.64268789 219.93470426 -310.66162109 237.14404297 C-310.67998968 253.85758367 -310.69414139 270.57111921 -310.70263672 287.28466797 C-310.70342489 288.83097782 -310.70342489 288.83097782 -310.70422898 290.40852626 C-310.70683913 295.58030853 -310.70936653 300.75209085 -310.71185279 305.92387319 C-310.73257352 348.80342862 -310.76778876 391.68296333 -310.8125 434.5625 C-287.66368013 434.5252905 -264.5150175 434.46536665 -241.36632824 434.37859726 C-230.61734462 434.3388326 -219.86843395 434.30642702 -209.11938477 434.29150391 C-199.74763026 434.27847408 -190.37603643 434.25147536 -181.00437242 434.20788693 C-176.04473456 434.18530215 -171.08529465 434.16958753 -166.12560081 434.17061615 C-161.45106476 434.17136452 -156.77696578 434.15334276 -152.10254288 434.12133217 C-150.39303521 434.11285956 -148.68347836 434.11106519 -146.97395897 434.11669731 C-134.23908524 434.15304328 -122.81192538 432.98046935 -113.0390625 423.91796875 C-102.26345079 412.75588996 -103.22859069 399.26110103 -103.26660156 384.7512207 C-103.25785788 382.54272232 -103.24736933 380.33423026 -103.23527527 378.12574768 C-103.20749239 372.15546436 -103.20400889 366.18538855 -103.20499516 360.21504998 C-103.20185944 353.96633307 -103.17622748 347.71770869 -103.15301514 341.46903992 C-103.11710006 330.98920952 -103.09496434 320.50942527 -103.08349609 310.02954102 C-103.07165108 299.24011724 -103.05142258 288.4507623 -103.02001953 277.66137695 C-103.01711538 276.66208138 -103.01711538 276.66208138 -103.01415256 275.64259801 C-103.00438733 272.30014261 -102.99444941 268.95768777 -102.98444796 265.61523306 C-102.90211326 237.93102013 -102.84798094 210.24680984 -102.8125 182.5625 C-103.71755783 182.27150925 -103.71755783 182.27150925 -104.64089966 181.97463989 C-105.4401889 181.7137558 -106.23947815 181.4528717 -107.06298828 181.18408203 C-107.85198517 180.9282132 -108.64098206 180.67234436 -109.45388794 180.40872192 C-113.07423718 179.10981442 -116.35696446 177.3458361 -119.6875 175.4375 C-120.72221436 174.84763306 -120.72221436 174.84763306 -121.77783203 174.24584961 C-127.99230976 170.61193557 -133.49657661 166.42371766 -138.8125 161.5625 C-139.65167969 160.80453125 -140.49085937 160.0465625 -141.35546875 159.265625 C-161.57138378 140.0840126 -172.92397585 113.36790559 -173.8828125 85.58984375 C-173.71687874 55.29184721 -162.78135057 28.41582513 -141.8125 6.5625 C-133.75031745 -1.3817994 -124.85064911 -7.28912844 -114.8125 -12.4375 C-113.87664062 -12.91960938 -112.94078125 -13.40171875 -111.9765625 -13.8984375 C-75.37147051 -31.61057878 -31.37534073 -24.94163322 0 0 Z M-722.8125 365.5625 C-723.75303223 365.99997559 -724.69356445 366.43745117 -725.66259766 366.88818359 C-755.28885276 380.70032683 -783.42070607 396.5438306 -810.625 414.625 C-811.6632341 415.31384277 -811.6632341 415.31384277 -812.72244263 416.01660156 C-831.12170607 428.24798754 -848.83715435 441.41637862 -865.8125 455.5625 C-866.5859375 456.20638672 -866.5859375 456.20638672 -867.375 456.86328125 C-874.16689253 462.52863392 -880.81552437 468.31130563 -887.328125 474.296875 C-889.47992583 476.25920909 -891.66292683 478.16896536 -893.875 480.0625 C-897.93352167 483.57821527 -901.67143155 487.38709053 -905.41796875 491.23046875 C-907.8125 493.5625 -907.8125 493.5625 -910.42578125 495.6484375 C-912.52871995 497.33491862 -914.11389546 498.92751783 -915.8125 501 C-919.12757415 504.88939621 -922.67977439 508.47451492 -926.3125 512.0625 C-931.02954251 516.73785148 -935.51648306 521.49495349 -939.8125 526.5625 C-940.76151455 527.64975411 -941.71220233 528.73554878 -942.6640625 529.8203125 C-999.70460408 594.92376686 -1043.97042834 671.31652385 -1103.8125 909.5625 C-1103.9669458 911.42793457 -1103.9669458 911.42793457 -1104.12451172 913.33105469 C-1110.34701643 991.44167467 -1102.43612421 1071.32910806 -1043.87597656 1244.26367188 C-1043.16302041 1245.80480942 -1042.45407544 1247.34780854 -1041.74902344 1248.89257812 C-1035.70769659 1262.12280807 -1028.93456952 1274.88447049 -1021.8125 1287.5625 C-1021.35617187 1288.3771875 -1020.89984375 1289.191875 -1020.4296875 1290.03125 C-1009.86633371 1308.81054562 -998.25733098 1326.97592114 -985.8125 1344.5625 C-985.30364258 1345.2838916 -984.79478516 1346.0052832 -984.27050781 1346.74853516 C-977.20812392 1356.73247056 -969.89582129 1366.45372557 -962.15429688 1375.92089844 C-960.92534554 1377.4244408 -959.70444517 1378.93455448 -958.484375 1380.4453125 C-949.13791941 1391.97709044 -939.4141721 1403.12514059 -929.28710938 1413.97460938 C-927.31485197 1416.09837795 -925.36457938 1418.24175598 -923.41381836 1420.38525391 C-918.99536015 1425.23632579 -914.55514514 1430.02605682 -909.8125 1434.5625 C-909.4825 1434.5625 -909.1525 1434.5625 -908.8125 1434.5625 C-908.60654251 1381.71984845 -908.44793459 1328.87723743 -908.35291203 1276.03426353 C-908.34165555 1269.79701162 -908.33000666 1263.5597605 -908.31811523 1257.32250977 C-908.31575444 1256.08077481 -908.31339365 1254.83903986 -908.31096131 1253.55967658 C-908.2717894 1233.44827001 -908.20082274 1213.33709474 -908.11812484 1193.22582544 C-908.03398889 1172.59289999 -907.98397686 1151.96009576 -907.96570355 1131.3270058 C-907.95334858 1118.59306713 -907.91431446 1105.85978224 -907.8412518 1093.1260448 C-907.79371223 1084.39641683 -907.77929128 1075.6671273 -907.7909876 1066.93737925 C-907.79675778 1061.89897776 -907.78785627 1056.86171936 -907.73965073 1051.82352066 C-907.69582451 1047.20933798 -907.69365463 1042.59706586 -907.72440995 1037.98279487 C-907.72821027 1036.31504335 -907.71681111 1034.64717222 -907.68855136 1032.97965581 C-907.39487625 1023.85933526 -907.39487625 1023.85933526 -910.80076039 1015.62463939 C-913.02864082 1013.38139847 -915.29881901 1011.47182679 -917.8125 1009.5625 C-920.95283731 1006.00443394 -923.87136961 1002.28627017 -926.8125 998.5625 C-927.59367188 997.60988281 -928.37484375 996.65726563 -929.1796875 995.67578125 C-958.26844412 959.38453697 -977.9367052 907.52232024 -974.8125 860.5625 C-973.38679013 854.34726456 -971.06248224 851.17186279 -965.8125 847.5625 C-962.5689565 846.48131883 -960.12320535 846.39550649 -956.70864868 846.33457947 C-955.43067917 846.31008224 -954.15270966 846.28558502 -952.83601379 846.26034546 C-951.41623266 846.23836486 -949.99644796 846.21661359 -948.57666016 846.19506836 C-947.08321293 846.16915718 -945.58976918 846.14304443 -944.09632874 846.116745 C-930.407127 845.88506798 -916.71639378 845.7550906 -903.02569008 845.65137386 C-893.83421564 845.58015688 -884.64515171 845.47905009 -875.45507812 845.30053711 C-867.42547526 845.1445806 -859.39755142 845.04669583 -851.36645544 845.01641375 C-847.12450599 844.99858187 -842.88705222 844.95412591 -838.64650345 844.84025383 C-819.71260676 844.35298567 -805.62620316 844.63617882 -791.07357788 858.43507385 C-790.03189013 859.46912448 -790.03189013 859.46912448 -788.96915817 860.52406502 C-785.3717847 863.9242385 -781.34600434 866.70860236 -777.3125 869.5625 C-766.12786784 877.73906077 -755.14690837 886.18194561 -744.14648438 894.60351562 C-734.15363256 902.25028338 -724.12717904 909.83826802 -713.97607422 917.27392578 C-707.13595221 922.2956976 -700.39240736 927.43875651 -693.6550293 932.59716797 C-687.09366265 937.61136836 -680.45959921 942.51748097 -673.79418945 947.39208984 C-667.35564093 952.11943454 -661.04203149 956.99658574 -654.77270508 961.94580078 C-654.07814209 962.49220215 -653.3835791 963.03860352 -652.66796875 963.6015625 C-651.76534302 964.31626709 -651.76534302 964.31626709 -650.84448242 965.04541016 C-648.74070906 966.7219255 -648.74070906 966.7219255 -645.73381042 968.00930786 C-642.51935909 970.81870183 -642.37009283 971.15185999 -642.05300903 975.14361572 C-642.01785772 977.07231676 -642.01587156 979.00178807 -642.03955078 980.93066406 C-642.02892105 981.98463379 -642.01829132 983.03860352 -642.00733948 984.12451172 C-641.97922631 987.60953138 -641.99336508 991.09304322 -642.0078125 994.578125 C-641.99656608 996.99380825 -641.98268709 999.40948058 -641.96627808 1001.82513428 C-641.93016911 1008.18417501 -641.92987569 1014.54273567 -641.93695068 1020.90185547 C-641.93786211 1027.39038741 -641.90502614 1033.87873801 -641.875 1040.3671875 C-641.82107064 1053.09906596 -641.80808224 1065.83050792 -641.8125 1078.5625 C-652.7025 1078.5625 -663.5925 1078.5625 -674.8125 1078.5625 C-674.8125 1245.5425 -674.8125 1412.5225 -674.8125 1584.5625 C-574.0989591 1621.82886234 -574.0989591 1621.82886234 -469.125 1620.8125 C-468.361875 1620.4 -467.59875 1619.9875 -466.8125 1619.5625 C-466.02875 1619.15 -465.245 1618.7375 -464.4375 1618.3125 C-455.13837509 1612.7832906 -448.66793592 1603.96790207 -445.8125 1593.5625 C-444.89382774 1588.23258785 -444.67071437 1583.12011621 -444.68600017 1577.73446482 C-444.68371035 1576.42814864 -444.68371035 1576.42814864 -444.68137427 1575.09544223 C-444.67746892 1572.16917997 -444.68069256 1569.24296918 -444.68386555 1566.31670666 C-444.68251922 1564.19172712 -444.68073552 1562.06674782 -444.67855331 1559.94176897 C-444.67381081 1554.07424635 -444.67532901 1548.20673919 -444.67783108 1542.33921579 C-444.67946019 1535.96640865 -444.67532665 1529.59360487 -444.67192191 1523.22079879 C-444.66676011 1512.04220043 -444.66531734 1500.86360651 -444.66637802 1489.6850071 C-444.66750194 1477.6888988 -444.66647025 1465.69279361 -444.66280556 1453.69668579 C-444.6625759 1452.93933329 -444.66234625 1452.18198078 -444.66210964 1451.4016782 C-444.66116801 1448.31715397 -444.66021233 1445.23262975 -444.65923845 1442.14810553 C-444.64909022 1409.95899313 -444.64603233 1377.76988248 -444.64544634 1345.58076867 C-444.64538159 1342.11524452 -444.64531365 1338.64972038 -444.64524293 1335.18419623 C-444.64522592 1334.32423853 -444.64520892 1333.46428082 -444.6451914 1332.57826379 C-444.64478308 1313.52843876 -444.64259362 1294.47861407 -444.64008708 1275.42878922 C-444.63905874 1267.58673302 -444.63806872 1259.74467682 -444.63707083 1251.90262061 C-444.63696025 1251.03616317 -444.63684966 1250.16970572 -444.63673572 1249.27699199 C-444.63041094 1199.61948697 -444.62628668 1149.96198218 -444.62674427 1100.30447674 C-444.62676005 1098.44580905 -444.62677578 1096.58714137 -444.62679148 1094.72847369 C-444.62686486 1086.33657846 -444.62695303 1077.94468322 -444.62704536 1069.55278799 C-444.62708649 1065.81056003 -444.62712663 1062.06833207 -444.62716668 1058.32610411 C-444.62718707 1056.45305097 -444.62720809 1054.57999783 -444.62722974 1052.7069447 C-444.62791007 993.47104977 -444.62059137 934.23516083 -444.60668945 874.99926758 C-444.60318851 860.07362971 -444.59971908 845.14799185 -444.59642506 830.22235394 C-444.59622218 829.30335578 -444.59601931 828.38435763 -444.59581029 827.43751105 C-444.58959663 799.11932257 -444.58582999 770.80113458 -444.58456707 742.48294544 C-444.58452712 741.5940451 -444.58448717 740.70514476 -444.58444601 739.78930804 C-444.58359279 720.27709066 -444.58333152 700.76487331 -444.58361638 681.25265592 C-444.58371287 674.27107863 -444.58376491 667.28950135 -444.58379511 660.30792406 C-444.58380303 658.57104869 -444.58381323 656.83417332 -444.58382574 655.09729796 C-444.58400215 627.40767505 -444.57830045 599.71805725 -444.56967192 572.02843581 C-444.56102706 544.14469603 -444.55882639 516.26096333 -444.56543324 488.37722278 C-444.56634556 484.52565433 -444.56718883 480.67408587 -444.56799126 476.8225174 C-444.56815134 476.06749356 -444.56831143 475.31246972 -444.56847637 474.53456637 C-444.57083097 462.57112865 -444.56646813 450.60770318 -444.55932007 438.64426777 C-444.55243445 426.88545383 -444.55283515 415.12666179 -444.56051221 403.36784781 C-444.56441411 397.07569229 -444.56511104 390.78358029 -444.55705485 384.49142774 C-444.54979379 378.77041871 -444.55169153 373.04948959 -444.56097872 367.32848416 C-444.56270397 365.2687367 -444.5610589 363.20898304 -444.55567751 361.14924189 C-444.54886431 358.35492504 -444.55439332 355.56088874 -444.56295234 352.76658267 C-444.55805272 351.97304656 -444.5531531 351.17951045 -444.54810501 350.36192779 C-444.6283154 337.78523711 -448.12346291 326.69620035 -456.80078125 317.37890625 C-464.90732839 310.05940252 -475.08743687 305.97272052 -486 306.125 C-487.24583862 306.13744751 -487.24583862 306.13744751 -488.5168457 306.15014648 C-568.3518822 308.10924571 -650.94690912 331.82517703 -722.8125 365.5625 Z " fill="#FFFFFF" transform="translate(1291.8125,38.4375)"/>
<path d="M0 0 C9.29988639 6.52652741 15.96542747 13.97997492 20.1875 24.53515625 C42.9575 24.86515625 65.7275 25.19515625 89.1875 25.53515625 C89.1875 18.60515625 89.1875 11.67515625 89.1875 4.53515625 C95.73963527 -5.94826018 95.73963527 -5.94826018 102.1875 -7.46484375 C151.87331381 -12.35473719 205.40834984 10.90121528 243.1875 41.53515625 C246.79099682 44.55884231 250.2355366 47.74025622 253.61425781 51.01318359 C254.71946446 52.08237327 255.83141845 53.14461095 256.94824219 54.20166016 C266.81631056 63.55322522 275.22709754 73.52597 283.1875 84.53515625 C283.67444336 85.19 284.16138672 85.84484375 284.66308594 86.51953125 C288.1875 91.30778783 288.1875 91.30778783 288.1875 93.53515625 C287.30625961 93.53658127 286.42501923 93.53800629 285.51707458 93.53947449 C277.14800216 93.55742079 268.77945045 93.5993749 260.41062832 93.66724682 C256.10970236 93.70130919 251.80912377 93.72659408 247.50805664 93.73071289 C243.34501084 93.73504096 239.18274588 93.76386965 235.01994514 93.80858803 C233.44426105 93.82142088 231.86848282 93.82592214 230.29275322 93.82131004 C211.34727462 93.77883584 195.30515279 99.54957939 181.1875 112.53515625 C168.53989907 125.61114367 162.20799131 142.42084249 162.1875 160.53515625 C163.24342235 178.73541787 170.1508047 195.68013681 183.5234375 208.28515625 C197.81405173 220.35464862 213.62108555 224.94689444 232.04956055 224.67944336 C233.17948425 224.67181976 234.30940796 224.66419617 235.47357178 224.65634155 C237.90705373 224.63990155 240.34051179 224.61953586 242.7739315 224.59559441 C248.62561324 224.54463564 254.47728031 224.54156125 260.3291508 224.53264153 C269.28667964 224.5178419 278.24339958 224.48587446 287.20043945 224.38793945 C293.91797401 224.31470555 300.6335058 224.29928496 307.351511 224.31720161 C309.90442761 224.31408214 312.45740086 224.29122406 315.00995445 224.24806023 C334.90679587 223.92492147 334.90679587 223.92492147 340.38397217 227.79194641 C342.48855845 230.62999407 343.84270127 233.2782339 345.1875 236.53515625 C346.07639995 237.90979568 346.99658319 239.26507277 347.95654297 240.59106445 C348.78324607 241.83781917 349.60761182 243.08612675 350.4296875 244.3359375 C350.88296417 245.01963913 351.33624084 245.70334076 351.80325317 246.40776062 C353.69686791 249.26414233 355.58484687 252.12423248 357.47314453 254.98413086 C362.77458025 263.00625824 368.14226545 270.95511693 373.7651062 278.75604248 C377.03171266 283.29289962 380.16225002 287.89723054 383.1875 292.59765625 C383.88166016 293.65629883 383.88166016 293.65629883 384.58984375 294.73632812 C388.41480756 300.65116346 390.92628202 305.27046636 390.1875 312.53515625 C388.49222232 318.16819919 385.70862035 321.55264224 380.68579102 324.5249939 C375.68734828 326.54607096 370.46815219 326.13925063 365.15625 326.0234375 C363.92459106 326.01636276 362.69293213 326.00928802 361.4239502 326.0019989 C357.51116813 325.97413252 353.59984561 325.91140266 349.6875 325.84765625 C347.02606261 325.81973058 344.36463893 325.79975244 341.703125 325.77929688 C335.19742327 325.72433084 328.69256594 325.64077974 322.1875 325.53515625 C322.19638245 326.64634323 322.20526489 327.75753021 322.2144165 328.90238953 C322.29582007 339.4203257 322.35561713 349.93819721 322.39474869 360.45637798 C322.41554356 365.8627361 322.44371196 371.26883808 322.48925781 376.67504883 C322.53300601 381.901121 322.55669788 387.12694818 322.56700897 392.35318947 C322.57434865 394.338111 322.58868005 396.32302049 322.61042023 398.30783653 C322.80115973 416.45848925 320.25511255 431.84527643 307.1875 445.53515625 C294.91522259 455.88339016 283.45938544 459.07213184 267.5 458.72265625 C266.30955078 458.70912109 265.11910156 458.69558594 263.89257812 458.68164062 C260.99039262 458.64667453 258.08920191 458.59760321 255.1875 458.53515625 C255.18603344 457.91800719 255.18456688 457.30085814 255.18305588 456.66500759 C255.14596766 441.63269339 255.08692649 426.60063837 255.00359726 411.56851864 C254.9638261 404.29901203 254.93142393 397.02961337 254.91650391 389.76000977 C254.90347731 383.42213707 254.87648728 377.08450209 254.83288693 370.74676329 C254.81029432 367.39242993 254.79458796 364.03838951 254.79561615 360.68397331 C254.79325157 356.93470471 254.76620993 353.18636453 254.73339844 349.43725586 C254.7384288 348.33098343 254.74345917 347.224711 254.74864197 346.08491516 C254.64753368 338.61607532 253.60136153 333.88491523 248.10717773 328.49389648 C247.36927002 327.94934814 246.6313623 327.4047998 245.87109375 326.84375 C245.03449219 326.21662109 244.19789063 325.58949219 243.3359375 324.94335938 C242.44132812 324.29302734 241.54671875 323.64269531 240.625 322.97265625 C239.22314453 321.92948242 239.22314453 321.92948242 237.79296875 320.86523438 C234.93385215 318.74214712 232.06223883 316.63702433 229.1875 314.53515625 C227.56328198 313.33924772 225.93955427 312.14267288 224.31640625 310.9453125 C221.99792898 309.23620514 219.67847517 307.52854232 217.35522461 305.82592773 C210.51054307 300.80327814 203.76492487 295.65600051 197.0234375 290.49609375 C191.28847273 286.11451299 185.50990437 281.79972667 179.6875 277.53515625 C172.06009983 271.94853205 164.53105435 266.24239287 157.0234375 260.49609375 C151.28847273 256.11451299 145.50990437 251.79972667 139.6875 247.53515625 C132.07488382 241.95936045 124.55952481 236.26544211 117.06738281 230.52905273 C110.09259644 225.1989559 103.04730954 219.9704214 95.96289062 214.78710938 C95.21716797 214.24119141 94.47144531 213.69527344 93.703125 213.1328125 C93.04602539 212.65336182 92.38892578 212.17391113 91.71191406 211.67993164 C90.1875 210.53515625 90.1875 210.53515625 89.1875 209.53515625 C89.1875 193.03515625 89.1875 176.53515625 89.1875 159.53515625 C33.4175 159.86515625 -22.3525 160.19515625 -79.8125 160.53515625 C-81.4625 163.83515625 -83.1125 167.13515625 -84.8125 170.53515625 C-91.86299736 181.94474331 -102.980433 188.35571493 -115.66650391 192.0793457 C-131.35158862 195.41086483 -147.1465031 192.4490088 -160.55859375 184.09765625 C-171.42871796 176.56204154 -179.41713672 164.7096543 -181.8125 151.53515625 C-182.90618291 134.77132808 -179.59713419 121.26889925 -169.0625 107.84765625 C-160.44948705 98.41329929 -148.95677072 92.85856662 -136.2578125 92.08984375 C-120.07773704 91.57103044 -106.02312796 93.7295107 -93.37109375 104.640625 C-87.11719265 110.62664896 -83.01833619 116.52056578 -79.8125 124.53515625 C-24.0425 124.86515625 31.7275 125.19515625 89.1875 125.53515625 C89.1875 103.75515625 89.1875 81.97515625 89.1875 59.53515625 C66.4175 59.86515625 43.6475 60.19515625 20.1875 60.53515625 C17.7125 65.48515625 17.7125 65.48515625 15.1875 70.53515625 C7.3996202 82.33452885 -3.07156516 89.35486441 -16.8125 92.53515625 C-31.67122114 94.95525933 -45.32136546 91.89862188 -57.6484375 83.23046875 C-68.73480455 74.54548084 -75.19155394 64.04781369 -77.3515625 50.0390625 C-78.68431268 35.89021466 -75.82478417 22.76184123 -67.125 11.28515625 C-59.33009979 2.22503902 -51.20023954 -2.86952761 -39.8125 -6.46484375 C-39.17957031 -6.6659375 -38.54664063 -6.86703125 -37.89453125 -7.07421875 C-24.84292429 -9.5229255 -11.32740019 -6.80893357 0 0 Z " fill="#FFFFFF" transform="translate(426.8125,658.46484375)"/>
<path d="M0 0 C0.85948242 -0.00029205 1.71896484 -0.00058411 2.60449219 -0.00088501 C5.41807494 0.00049759 8.23138594 0.01600793 11.04492188 0.03173828 C13.00646826 0.03547222 14.96801651 0.03831739 16.92956543 0.04031372 C22.07191185 0.04792016 27.21414384 0.06754281 32.35644531 0.08972168 C37.61196342 0.1102447 42.86750017 0.11932921 48.12304688 0.12939453 C58.41997193 0.15079166 68.71681235 0.18489128 79.01367188 0.22705078 C80.12800486 3.35681842 81.23544096 6.48898656 82.34179688 9.62158203 C82.65262207 10.49431763 82.96344727 11.36705322 83.28369141 12.26623535 C88.94183589 28.32363359 93.04699143 45.00149156 94.54980469 61.98486328 C94.68119843 63.46043701 94.68119843 63.46043701 94.81524658 64.96582031 C94.9134671 66.08512939 94.9134671 66.08512939 95.01367188 67.22705078 C81.34845758 67.29665021 67.68328567 67.34991269 54.01793003 67.3824873 C47.67212716 67.39812375 41.32644583 67.4193254 34.98071289 67.45336914 C28.85341642 67.48603421 22.72623664 67.50391899 16.59885979 67.51168251 C14.26455792 67.51721315 11.93026222 67.52801311 9.59601021 67.54424095 C6.31915757 67.56610983 3.04278335 67.5690137 -0.23413086 67.56762695 C-1.19295166 67.57841278 -2.15177246 67.58919861 -3.13964844 67.60031128 C-14.15884274 67.55005752 -21.66751588 64.04969763 -29.67773438 56.66845703 C-35.76183505 50.30988565 -38.16433834 42.46655 -38.54882812 33.78955078 C-38.24161507 24.88037208 -34.97710774 16.27085891 -28.77929688 9.75439453 C-20.12147515 2.37921307 -11.13955589 -0.10086799 0 0 Z " fill="#FFFFFF" transform="translate(653.986328125,783.77294921875)"/>
</svg>
